<svg width="295" height="52" viewBox="0 0 295 52" fill="none" xmlns="http://www.w3.org/2000/svg">
<g clip-path="url(#clip0_202_75)">
<path d="M0 42.0161C0 48.7593 9.43263 50.5074 20.6053 50.5074C31.7184 50.5074 41.2105 48.8205 41.2105 42.0758C41.2105 35.3311 31.7794 33.5845 20.6053 33.5845C9.49216 33.5845 0 35.2714 0 42.0161Z" fill="#5D18DC"/>
<path d="M20.6053 26.9176C28.0233 26.9176 34.0368 20.8919 34.0368 13.4588C34.0368 6.02572 28.0233 0 20.6053 0C13.1872 0 7.17368 6.02572 7.17368 13.4588C7.17368 20.8919 13.1872 26.9176 20.6053 26.9176Z" fill="#F36523"/>
<path d="M78.7287 44C77.8954 44 77.212 43.8333 76.6787 43.5C76.1787 43.1667 75.8287 42.7167 75.6287 42.15C75.462 41.55 75.462 40.9 75.6287 40.2C75.8287 39.4667 76.212 38.7167 76.7787 37.95L95.8787 12.05V14.1H78.2287C77.2954 14.1 76.5787 13.8667 76.0787 13.4C75.612 12.9333 75.3787 12.2667 75.3787 11.4C75.3787 10.5333 75.612 9.88333 76.0787 9.45C76.5787 8.98333 77.2954 8.75 78.2287 8.75H98.9287C99.762 8.75 100.429 8.91666 100.929 9.25C101.462 9.58333 101.812 10.0333 101.979 10.6C102.179 11.1667 102.179 11.8167 101.979 12.55C101.812 13.2833 101.445 14.0333 100.879 14.8L81.7787 40.65V38.65H100.179C101.112 38.65 101.812 38.8833 102.279 39.35C102.779 39.7833 103.029 40.4333 103.029 41.3C103.029 42.1667 102.779 42.8333 102.279 43.3C101.812 43.7667 101.112 44 100.179 44H78.7287ZM117.502 44.4C116.469 44.4 115.669 44.1167 115.102 43.55C114.569 42.95 114.302 42.1333 114.302 41.1V11.65C114.302 10.5833 114.569 9.76667 115.102 9.2C115.669 8.63333 116.469 8.35 117.502 8.35C118.535 8.35 119.319 8.63333 119.852 9.2C120.419 9.76667 120.702 10.5833 120.702 11.65V41.1C120.702 42.1333 120.435 42.95 119.902 43.55C119.369 44.1167 118.569 44.4 117.502 44.4ZM138.563 44C137.463 44 136.613 43.7167 136.013 43.15C135.447 42.55 135.163 41.7 135.163 40.6V12.15C135.163 11.05 135.447 10.2167 136.013 9.65C136.613 9.05 137.463 8.75 138.563 8.75H156.413C157.247 8.75 157.88 8.96666 158.313 9.4C158.78 9.83333 159.013 10.45 159.013 11.25C159.013 12.0833 158.78 12.7333 158.313 13.2C157.88 13.6333 157.247 13.85 156.413 13.85H141.313V23.55H155.313C156.18 23.55 156.83 23.7667 157.263 24.2C157.697 24.6333 157.913 25.2667 157.913 26.1C157.913 26.9333 157.697 27.5667 157.263 28C156.83 28.4333 156.18 28.65 155.313 28.65H141.313V38.9H156.413C157.247 38.9 157.88 39.1167 158.313 39.55C158.78 39.9833 159.013 40.6167 159.013 41.45C159.013 42.2833 158.78 42.9167 158.313 43.35C157.88 43.7833 157.247 44 156.413 44H138.563ZM174.947 44.4C173.914 44.4 173.114 44.1167 172.547 43.55C172.014 42.95 171.747 42.1333 171.747 41.1V12C171.747 10.9333 172.031 10.1333 172.597 9.6C173.164 9.03333 173.964 8.75 174.997 8.75H187.047C190.914 8.75 193.897 9.71666 195.997 11.65C198.097 13.5833 199.147 16.2833 199.147 19.75C199.147 23.2167 198.097 25.9333 195.997 27.9C193.897 29.8333 190.914 30.8 187.047 30.8H178.147V41.1C178.147 42.1333 177.881 42.95 177.347 43.55C176.814 44.1167 176.014 44.4 174.947 44.4ZM178.147 25.75H186.047C188.314 25.75 190.031 25.25 191.197 24.25C192.364 23.2167 192.947 21.7167 192.947 19.75C192.947 17.7833 192.364 16.3 191.197 15.3C190.031 14.3 188.314 13.8 186.047 13.8H178.147V25.75ZM226.671 44.5C223.271 44.5 220.287 43.75 217.721 42.25C215.187 40.75 213.221 38.65 211.821 35.95C210.421 33.2167 209.721 30.0167 209.721 26.35C209.721 23.5833 210.121 21.1 210.921 18.9C211.721 16.6667 212.854 14.7667 214.321 13.2C215.821 11.6 217.604 10.3833 219.671 9.55C221.771 8.68333 224.104 8.25 226.671 8.25C230.104 8.25 233.087 9 235.621 10.5C238.154 11.9667 240.121 14.05 241.521 16.75C242.921 19.45 243.621 22.6333 243.621 26.3C243.621 29.0667 243.221 31.5667 242.421 33.8C241.621 36.0333 240.471 37.95 238.971 39.55C237.504 41.15 235.721 42.3833 233.621 43.25C231.554 44.0833 229.237 44.5 226.671 44.5ZM226.671 39C228.837 39 230.671 38.5 232.171 37.5C233.704 36.5 234.871 35.05 235.671 33.15C236.504 31.25 236.921 28.9833 236.921 26.35C236.921 22.35 236.021 19.25 234.221 17.05C232.454 14.85 229.937 13.75 226.671 13.75C224.537 13.75 222.704 14.25 221.171 15.25C219.637 16.2167 218.454 17.65 217.621 19.55C216.821 21.4167 216.421 23.6833 216.421 26.35C216.421 30.3167 217.321 33.4167 219.121 35.65C220.921 37.8833 223.437 39 226.671 39ZM269.028 44.5C267.562 44.5 266.095 44.3833 264.628 44.15C263.162 43.95 261.778 43.6333 260.478 43.2C259.178 42.7333 258.012 42.1667 256.978 41.5C256.378 41.1 255.962 40.6167 255.728 40.05C255.495 39.4833 255.412 38.9333 255.478 38.4C255.578 37.8333 255.795 37.35 256.128 36.95C256.495 36.5167 256.945 36.25 257.478 36.15C258.012 36.05 258.595 36.2 259.228 36.6C260.695 37.4667 262.245 38.1 263.878 38.5C265.512 38.9 267.228 39.1 269.028 39.1C271.662 39.1 273.578 38.6667 274.778 37.8C275.978 36.9 276.578 35.75 276.578 34.35C276.578 33.1833 276.145 32.2667 275.278 31.6C274.445 30.9333 272.995 30.3833 270.928 29.95L265.428 28.8C262.262 28.1333 259.895 27.0167 258.328 25.45C256.795 23.85 256.028 21.75 256.028 19.15C256.028 17.5167 256.362 16.0333 257.028 14.7C257.695 13.3667 258.628 12.2167 259.828 11.25C261.062 10.2833 262.512 9.55 264.178 9.05C265.878 8.51666 267.745 8.25 269.778 8.25C271.778 8.25 273.678 8.5 275.478 9C277.278 9.5 278.895 10.2333 280.328 11.2C280.862 11.5667 281.212 12.0167 281.378 12.55C281.578 13.0833 281.628 13.6167 281.528 14.15C281.428 14.65 281.195 15.0833 280.828 15.45C280.462 15.8167 279.995 16.0333 279.428 16.1C278.895 16.1667 278.278 16 277.578 15.6C276.345 14.9 275.095 14.4 273.828 14.1C272.562 13.8 271.195 13.65 269.728 13.65C268.195 13.65 266.878 13.8667 265.778 14.3C264.678 14.7333 263.828 15.35 263.228 16.15C262.662 16.9167 262.378 17.8333 262.378 18.9C262.378 20.1 262.778 21.0667 263.578 21.8C264.378 22.5 265.745 23.05 267.678 23.45L273.128 24.6C276.428 25.3 278.878 26.4 280.478 27.9C282.112 29.4 282.928 31.4 282.928 33.9C282.928 35.5 282.595 36.95 281.928 38.25C281.295 39.55 280.362 40.6667 279.128 41.6C277.928 42.5333 276.478 43.25 274.778 43.75C273.078 44.25 271.162 44.5 269.028 44.5Z" fill="#5D18DC"/>
</g>
<defs>
<clipPath id="clip0_202_75">
<rect width="295" height="52" fill="white"/>
</clipPath>
</defs>
</svg>
